<?xml version="1.0" encoding="UTF-8"?>
<svg id="Layer_1" xmlns="http://www.w3.org/2000/svg" viewBox="0 0 297 134">
    <defs>
        <style>
            .cls-1 {
                fill: #000000;
            }
        </style>
    </defs>
    <path class="cls-1"
        d="M161.8719,83.4133h2.29v7.4813c.6877-1.5023,1.9084-2.7744,3.9448-2.7744,3.4604,0,4.7579,2.2648,4.7579,4.9365v8.5245h-2.29v-8.2952c0-2.3159-.9923-3.2317-2.774-3.2317-1.9337,0-3.6387,1.6281-3.6387,5.0633v6.4636h-2.29v-18.168Zm-3.0024,16.2853c-1.0183,0-1.6803-.6363-1.6803-1.8071v-7.5825h2.5193v-1.8839h-2.5193v-4.096l-2.2387,1.0172v3.0788h-1.9595v1.8839h1.9595v7.7351c0,2.0363,1.1451,3.5372,3.6897,3.5372h1.1451v-1.8827h-.9159Zm-7.7105-16.2851h-2.2901v18.1679h2.2901v-18.1679Zm-10.7892,4.6813c-3.4351,0-5.0387,2.3923-5.3185,4.3007h2.29c.3053-1.4253,1.5019-2.3669,3.1045-2.3669,1.8831,0,2.926,.7892,2.926,1.8831,0,1.0948-.5595,1.5779-2.2901,1.8827-1.9844,.3572-6.6663,.4843-6.6663,4.1985,0,1.8839,1.4503,3.8936,4.6055,3.8936,2.9264,0,4.0208-1.7048,4.326-2.7228h.0249v.5096c0,.7376,0,1.2717,.0515,1.9084h2.4425c-.1021-.6367-.2039-1.6796-.2039-2.6717v-5.6496c0-2.0352-.4577-5.1655-5.2921-5.1655Zm-.9415,11.9343c-1.6036,0-2.7485-.7891-2.7485-2.0363,0-1.3232,1.1449-1.8827,3.0533-2.2132,2.8504-.5088,3.4103-1.2723,3.6644-2.1377l.0257,1.8328c0,3.2569-1.9848,4.5544-3.9949,4.5544Zm-12.9787,1.8575c2.926,0,5.1401-1.4247,5.8781-4.2243h-2.2393c-.4577,1.6289-1.9339,2.3159-3.6893,2.3159-2.3412,0-4.0204-1.6036-4.1989-4.3509h10.3316v-.4075c-.0516-3.384-1.5019-7.0996-6.1327-7.0996-3.7155,0-6.4131,2.85-6.4131,6.8193,0,4.1228,2.5708,6.9471,6.4636,6.9471Zm-4.2241-8.0921c.3056-2.2644,1.8067-3.7911,4.1736-3.7911,2.3407,0,3.6132,1.5009,3.8168,3.7911h-7.9904Zm-7.2529-10.3812v8.0408h-8.7528v-8.0408h-2.4173v18.168h2.4173v-8.0917h8.7528v8.0917h2.4177v-18.168h-2.4177Zm139.3752-19.6064h3.2059v2.2651c.7377-1.5267,1.9085-2.6211,3.9436-2.6211,3.4105,0,4.7337,2.2395,4.7337,5.4707v8.0407h-3.2569v-7.252c0-1.908-.5095-3.4097-2.3927-3.4097-1.7556,0-2.9509,1.5524-2.9509,4.7583v5.9035h-3.2827v-13.1553Zm-6.4896,13.1552h3.2827v-13.1553h-3.2827v13.1553Zm.0515-15.1144h3.384v-3.0535h-3.384v3.0535Zm-8.6275,1.5525c-3.4605,0-5.2668,2.2644-5.6484,4.4269h3.0792c.3305-1.2211,1.2975-1.9844,2.5949-1.9844,1.5011,0,2.418,.6109,2.418,1.6539,0,1.1196-.8145,1.3735-2.5193,1.6284-1.8328,.2804-6.158,.6363-6.158,4.2496,0,2.2133,1.7301,3.9435,4.6059,3.9435,2.4936,0,3.5876-1.3228,4.1217-2.3656h.0253v.6612c0,.4327,.0257,.9165,.1025,1.3485h3.2827c-.1793-.8389-.2549-2.188-.2549-3.2059v-4.7584c0-3.2316-1.5268-5.5977-5.6496-5.5977Zm-.7376,11.5011c-1.4757,0-2.2391-.7376-2.2391-1.6791,0-.9927,.7891-1.5268,2.5451-1.8827,1.9329-.3817,2.6204-.9673,2.9256-1.6036v1.1193c0,3.0535-1.5524,4.046-3.2316,4.046Zm-7.9897-.4829c-1.3996,0-1.7303-.8655-1.7303-2.3923v-5.7256h2.6461v-2.4936h-2.6461v-4.3767l-3.1813,1.3996v2.9771h-2.1119v2.4936h2.1119v6.1837c0,2.6464,.9167,4.5803,4.174,4.5291h1.5765v-2.5949h-.8389Zm-20.5103,2.5439h3.2827v-5.9035c0-3.2059,1.1953-4.7583,2.9509-4.7583,1.8831,0,2.3927,1.5017,2.3927,3.4097v7.252h3.2569v-8.0407c0-3.2312-1.3232-5.4707-4.7339-5.4707-2.0351,0-3.2059,1.0944-3.9435,2.6211v-2.2651h-3.2059v13.1553Zm-14.9632-5.1143c0,3.2316,1.3485,5.4701,4.7327,5.4701,2.0351,0,3.2316-1.0935,3.9447-2.6203v2.2644h3.2059v-13.1553h-3.2827v5.9033c0,3.2059-1.1704,4.7584-2.9521,4.7584-1.8573,0-2.3915-1.5013-2.3915-3.4099v-7.2519h-3.2569v8.0411Zm-15.9295-1.4757c0,4.2487,3.0535,6.9716,6.8961,6.9716s6.8703-2.7229,6.8703-6.9716c0-4.2243-3.0289-6.9215-6.8703-6.9215s-6.8961,2.6972-6.8961,6.9215Zm6.8961,4.3767c-2.2399,0-3.6897-1.9852-3.6897-4.3767,0-2.3669,1.4499-4.3513,3.6897-4.3513s3.6888,1.9844,3.6888,4.3513c0,2.3915-1.4499,4.3767-3.6888,4.3767Zm-28.0436,2.2133h3.2827v-5.9035c0-2.5704,.5084-4.7583,2.5447-4.7583,1.8063,0,2.1377,1.5017,2.1377,3.4097v7.252h3.1548v-6.2851c0-2.7483,.9925-4.3767,2.5193-4.3767,1.6288,0,2.1376,1.5017,2.1376,3.4097v7.252h3.2313v-8.0407c0-3.2312-1.6281-5.4707-4.9361-5.4707-1.9084,0-2.9264,.8905-3.6644,2.4679-.662-1.7045-1.8827-2.4679-3.6644-2.4679-1.9084,0-3.1299,1.2721-3.5365,2.5189v-2.1629h-3.2067v13.1553Zm-5.7765-13.1556h-3.2064v13.1553h3.2828v-5.9287c0-3.2059,1.1703-3.8421,2.3403-4.1217,.4589-.1781,1.4005-.1781,1.5783-.1781v-3.0792c-1.8324,.0257-3.2573,.7123-3.9949,2.4683v-2.3159Zm-12.0365,13.5627c3.1805,0,5.4707-1.6533,6.2597-4.2748h-3.2569c-.4839,1.1451-1.6543,1.6288-3.0285,1.6288-1.9084,0-3.3335-1.3232-3.5876-3.4351h10.0767v-.6363c-.0259-3.8929-2.036-7.2267-6.438-7.2267-3.9185,0-6.7685,2.9011-6.7685,6.9213,0,4.1985,2.774,7.0227,6.7432,7.0227Zm-3.588-8.2699c.3053-1.908,1.6032-3.1805,3.5623-3.1805,2.1119,0,3.1303,1.476,3.3337,3.1805h-6.896Zm-5.4967,5.3189c-1.3993,0-1.7303-.8655-1.7303-2.3923v-5.7256h2.6464v-2.4936h-2.6464v-4.3767l-3.1809,1.3996v2.9771h-2.112v2.4936h2.112v6.1837c0,2.6464,.9161,4.5803,4.1735,4.5291h1.5771v-2.5949h-.8393Zm-20.5104,2.5439h3.2827v-5.9035c0-3.2059,1.1957-4.7583,2.9517-4.7583,1.8827,0,2.3919,1.5017,2.3919,3.4097v7.252h3.2569v-8.0407c0-3.2312-1.3232-5.4707-4.7329-5.4707-2.0356,0-3.206,1.0944-3.944,2.6211v-2.2651h-3.2063v13.1553Zm-3.3845-18.168h-3.4093v18.1679h3.4093v-18.1679Z" />
    <path class="cls-1"
        d="M39.1882,60.2732c4.4081,0,7.994-3.6028,7.994-8.0298s-3.5859-8.0285-7.994-8.0285-7.9946,3.6015-7.9946,8.0285,3.5865,8.0298,7.9946,8.0298Zm0-14.8917c3.7649,0,6.8274,3.0781,6.8274,6.8619s-3.0624,6.8632-6.8274,6.8632-6.828-3.0794-6.828-6.8632,3.0631-6.8619,6.828-6.8619Zm36.942,21.9019c-7.4178,0-13.4522,6.0637-13.4522,13.518v15.1898c0,.3216-.2611,.5833-.5833,.5833s-.5833-.2617-.5833-.5833v-15.1898c0-8.0975,6.5578-14.6846,14.6189-14.6846,2.9833,0,5.7408,.9302,8.0564,2.4769-2.9221-2.6717-6.7933-4.3128-11.0459-4.3128-4.5413,0-8.6585,1.8595-11.6371,4.8604v-23.157c0-3.2721,2.6516-5.9348,5.9106-5.9348s5.91,2.6627,5.91,5.9348c0,.5312-.1426,1.0508-.4121,1.5026l-4.2629,6.4478v8.6847l7.3013-11.0402c1.1562-1.7369,1.7669-3.7643,1.7669-5.8632,0-5.8228-4.7148-10.561-10.5096-10.561s-10.3323,4.5684-10.5089,10.3605v50.8936c0,2.9908,2.4205,5.4244,5.3957,5.4244s5.3957-2.4335,5.3957-5.4244v-15.6065c0-4.7851,3.8756-8.6782,8.6398-8.6782s8.6398,3.8932,8.6398,8.6782v15.1885c0,.3216-.2611,.5833-.5833,.5833s-.5833-.2617-.5833-.5833v-15.1885c0-4.1419-3.3522-7.5116-7.4732-7.5116-2.1874,0-4.1519,.9552-5.5198,2.4655,.7647-.3886,1.6162-.6283,2.5302-.6283,3.1158,0,5.6503,2.5455,5.6503,5.6744v15.6065c0,2.9908,2.4205,5.4244,5.3957,5.4244s5.3957-2.4335,5.3957-5.4244v-15.6078c0-7.4543-6.0344-13.518-13.4522-13.518Zm-33.0749,25.3511c-.4616,.6706-1.2116,1.0651-2.0117,1.0651-1.345,0-2.4388-1.0976-2.4388-2.4479v-21.1285c0-.3216,.2611-.5833,.5833-.5833s.5833,.2617,.5833,.5833v21.1285c0,.707,.571,1.2812,1.2721,1.2812,.4167,0,.8073-.2057,1.0449-.5508l2.4954-3.773v-18.5052c0-2.9908-2.4205-5.4231-5.3957-5.4231s-5.3957,2.4322-5.3957,5.4231v21.5934c0,4.0025,3.2395,7.2577,7.2219,7.2577,2.3678,0,4.5872-1.1679,5.938-3.1249l8.5799-12.975v-8.6847l-12.477,18.8642Zm25.5939-46.6502v5.8345l3.2753-4.9517c.1471-.2487,.2331-.5625,.2331-.8828,0-.9726-.7871-1.7643-1.7539-1.7643-.9674,0-1.7545,.7917-1.7545,1.7643Zm10.2348-.2682c0,2.3086-.666,4.539-1.9264,6.4556l-7.4947,11.3331c1.2012-.2578,2.4335-.3906,3.6777-.3906,.767,0,1.5228,.0495,2.2641,.1455l6.0886-9.2065c1.72-2.3815,2.6217-5.1783,2.6217-8.1066,0-7.5975-6.1509-13.7797-13.7113-13.7797-3.5212,0-6.7211,1.3073-9.1429,3.4753l-.0047,.0038c1.7487-1.0521,3.787-1.6575,5.9517-1.6575,6.438,0,11.6762,5.2616,11.6762,11.7277Zm-11.4698-4.4999c-2.6158,0-4.7441,2.1393-4.7441,4.7681v20.596c1.47-1.0924,3.0956-1.9427,4.8124-2.5286v-18.0674c0-1.6159,1.3105-2.9309,2.9212-2.9309,.2926,0,.5695,.0564,.8362,.1371-.8632-1.1907-2.2509-1.9743-3.8257-1.9743Zm23.3349,39.5852v15.6078c0,3.634-2.944,6.591-6.5624,6.591s-6.5624-2.957-6.5624-6.591v-15.6065c0-2.4856-2.011-4.5077-4.4836-4.5077s-4.4836,2.0221-4.4836,4.5077v15.6065c0,3.634-2.944,6.591-6.5624,6.591s-6.5624-2.957-6.5624-6.591v-.9821l-1.459,2.206c-2.153,3.358-5.817,5.3671-9.7967,5.3671-6.4244,0-11.6508-5.2499-11.6508-11.7029v-21.5934c0-3.634,2.944-6.5897,6.5624-6.5897s6.5624,2.9557,6.5624,6.5897v16.7406l9.7817-14.7903v-26.1686c.1471-7.8294,6.5874-14.4854,14.8715-14.4854,8.2036,0,14.878,6.7043,14.878,14.9463,0,3.1757-.9785,6.2082-2.8294,8.7694l-5.7883,8.754c8.0269,1.644,14.085,8.7907,14.085,17.3315Zm-35.2168,3.7684l-7.6138,11.5126c-1.5742,2.2825-4.1529,3.6393-6.9042,3.6393-1.6222,0-3.1331-.4725-4.418-1.2763,1.9162,2.0779,4.6455,3.3883,7.6803,3.3883,3.5807,0,6.8775-1.8086,8.8195-4.8372l2.4362-3.6848v-8.7418Z" />
</svg>