<svg fill="none" xmlns="http://www.w3.org/2000/svg" viewBox="0 0 160 88">
  <g clip-path="url(#a)">
    <path d="m10.624 60.778 4.883-11.019c.796.065 1.356.087 2.259.087.645 0 1.119 0 1.463-.043.021 0 .129-.023.323-.044v.517l-.796.301c-1.119.408-1.227.582-1.227 1.937v8.931c0 1.356.237 1.658 1.635 2.131l.624.194-.022.517c-.644-.065-1.247-.087-3.269-.087-1.593 0-2.195.023-3.012.087v-.517l.86-.366c1.012-.43 1.162-.689 1.162-1.937v-8.953l-5.27 11.88h-.28l-5.141-11.88v8.932c0 1.355.107 1.528 1.355 2.044l.666.28v.517c-.602-.065-1.225-.087-2.99-.087-1.205 0-1.678.023-2.388.087l-.02-.517.623-.194c1.376-.453 1.635-.796 1.635-2.13v-8.932c0-1.313-.172-1.55-1.441-2.023l-.582-.215v-.517c.84.087 1.162.087 1.98.087.774 0 1.162 0 2.151-.087l4.819 11.02Zm17.47-3.422c-.043-2.152-.71-3.098-2.173-3.098a2.64 2.64 0 0 0-2.152 1.097c-.408.56-.537.969-.623 2.001h4.948Zm2.237.754h-7.185l-.02.151c0 1.893.279 2.884 1.031 3.809.667.796 1.506 1.206 2.582 1.206.904 0 1.635-.173 3.27-.753l.237.622c-1.635.862-2.99 1.25-4.497 1.25-2.86 0-4.625-1.917-4.625-5.015 0-3.487 2.065-5.876 5.141-5.876 2.41 0 4.066 1.678 4.066 4.132v.474Zm9.769-3.38a4.2 4.2 0 0 0-2.13-.558c-2.281 0-3.722 1.915-3.722 4.97 0 2.605 1.247 4.22 3.27 4.22.687 0 1.29-.13 2.302-.496l.28-.107V54.73Zm0 9.794v-1.185c-1.464.797-2.325 1.054-3.55 1.054-2.668 0-4.432-1.979-4.432-4.97 0-3.638 2.28-6.005 5.764-6.005.905 0 1.528.129 2.217.453v-2.95c0-1.053-.28-1.334-1.506-1.592l-.86-.173v-.43c1.27-.236 3.14-.71 4.28-1.097V61.66c0 .968.173 1.14 1.549 1.42l.581.108v.388l-.215.042c-1.313.237-1.871.366-3.506.818l-.323.087Zm5.378-4.348h.517c.58 1.55.946 2.238 1.398 2.625.43.387 1.312.646 2.151.646 1.678 0 2.817-.99 2.817-2.432 0-.947-.386-1.442-1.849-2.432l-1.98-1.334c-1.548-1.054-1.914-1.377-2.236-2.131-.238-.473-.345-1.032-.345-1.593 0-2.323 1.679-3.852 4.238-3.852.43 0 .903.023 1.355.109.043 0 .366.064.97.17.429.066.708.109.967.109h.301c0 .688.064 2.152.107 2.97l.022.302h-.473l-.13-.281c-.967-2.088-1.505-2.54-3.097-2.54-1.55 0-2.581.926-2.581 2.304 0 1.097.257 1.441 1.892 2.517l2.28 1.485c1.808 1.205 2.475 2.153 2.475 3.508 0 2.303-1.958 3.96-4.67 3.96a8.24 8.24 0 0 1-1.46-.129l-1.442-.302a4.669 4.669 0 0 0-1.033-.085h-.043v-.216c0-.818-.086-2.454-.151-3.379m11.895-5.724h-1.57v-.43c.86-.388 1.419-.754 1.828-1.206.344-.366.624-.882 1.01-1.807l.087-.216h.559v2.82h3.721v.84h-3.721v6.8c0 1.484.538 2.195 1.7 2.195.602 0 1.14-.108 2.021-.43l.216.516c-1.42.581-2.56.86-3.486.86-1.548 0-2.365-.86-2.365-2.453v-7.49Zm13.197 4.563c-1.269.215-2.194.451-2.817.689-.796.3-1.249.925-1.249 1.764 0 1.012.732 1.701 1.786 1.701.667 0 1.528-.237 2.28-.625v-3.53Zm0-.603v-3.099c0-.861-.408-1.248-1.354-1.248-.84 0-1.119.13-1.4.646-.58 1.097-.924 1.42-1.548 1.42-.581 0-.99-.388-.99-.969 0-1.032 1.614-1.744 3.938-1.744 2.193 0 3.269.841 3.269 2.54v5.489c0 .882.494 1.441 1.27 1.441.257 0 .45-.042.86-.236l.237.344c-1.442 1.033-2.174 1.4-2.819 1.4-.688 0-1.075-.43-1.27-1.4-1.613 1.033-2.624 1.4-3.72 1.4-1.55 0-2.669-1.098-2.669-2.605 0-1.077.538-1.873 1.55-2.303.968-.408 1.807-.602 4.323-1.032l.323-.044Zm9.08-5.101v1.464c1.355-.883 2.388-1.27 3.463-1.27 1.055 0 1.592.43 1.592 1.227 0 .689-.43 1.119-1.097 1.119-.516 0-.71-.108-1.119-.71-.257-.388-.409-.474-.796-.474-.58 0-1.269.215-1.936.603v6.521c0 1.076.216 1.334 1.27 1.614l1.442.387v.495c-.71-.064-1.486-.085-3.572-.085-1.979 0-2.646.022-3.291.085v-.495l1.01-.344c1.011-.344 1.227-.646 1.227-1.55V56.41c0-1.184-.216-1.442-1.42-1.636l-.817-.13v-.409c.689-.107 2.645-.56 4.044-.925m15.684 3.853v4.24c0 1.356.107 1.506 1.635 2.13l.624.238-.022.515c-.774-.064-1.526-.085-3.462-.085-1.572 0-2.217.022-3.035.085l-.021-.515.625-.216c1.376-.473 1.633-.818 1.633-2.152v-8.825c0-1.313-.278-1.657-1.633-2.109l-.625-.193.021-.517c.775.065 1.657.086 3.4.086 1.614 0 2.366-.022 3.097-.085l.022.516-.624.193c-1.355.431-1.635.796-1.635 2.11v3.744h7.099v-3.745c0-1.313-.279-1.678-1.635-2.109l-.624-.193v-.517c.754.065 1.614.086 3.421.086 1.57 0 2.344-.022 3.098-.085v.516l-.603.193c-1.377.452-1.634.796-1.634 2.11v8.824c0 1.356.085 1.485 1.634 2.13l.603.238v.515c-.797-.064-1.55-.085-3.529-.085-1.462 0-2.087.022-2.99.085v-.515l.624-.238c1.506-.624 1.635-.774 1.635-2.13v-4.24h-7.099Zm19.665.193c-.044-2.152-.711-3.098-2.174-3.098a2.64 2.64 0 0 0-2.151 1.097c-.408.56-.538.969-.624 2.001h4.949Zm2.237.754h-7.186l-.021.151c0 1.893.28 2.884 1.032 3.809.667.796 1.505 1.206 2.582 1.206.904 0 1.635-.173 3.27-.753l.236.622c-1.634.862-2.99 1.25-4.496 1.25-2.861 0-4.625-1.917-4.625-5.015 0-3.487 2.065-5.876 5.141-5.876 2.41 0 4.066 1.678 4.066 4.132l.001.474Zm7.745.904c-1.269.215-2.195.451-2.819.689-.796.3-1.247.925-1.247 1.764 0 1.012.732 1.701 1.785 1.701.667 0 1.528-.237 2.281-.625v-3.53Zm0-.603v-3.099c0-.861-.408-1.248-1.355-1.248-.84 0-1.119.13-1.399.646-.58 1.097-.925 1.42-1.548 1.42-.582 0-.99-.388-.99-.969 0-1.032 1.613-1.744 3.937-1.744 2.194 0 3.269.841 3.269 2.54v5.489c0 .882.495 1.441 1.27 1.441.258 0 .451-.042.86-.236l.237.344c-1.441 1.033-2.173 1.4-2.818 1.4-.688 0-1.076-.43-1.269-1.4-1.614 1.033-2.625 1.4-3.722 1.4-1.548 0-2.668-1.098-2.668-2.605 0-1.077.538-1.873 1.549-2.303.968-.408 1.808-.602 4.324-1.032l.323-.044Zm9.187-10.739v14.031c0 1.228.236 1.507 1.463 1.895l.688.193v.496c-.989-.065-1.527-.087-3.076-.087-1.871 0-2.431.023-3.227.087v-.496l.99-.365c.967-.366 1.248-.754 1.248-1.723V50.965c0-1.055-.301-1.356-1.485-1.594l-.883-.17v-.389l.216-.043 1.894-.452c.86-.194 1.226-.3 2.172-.645m4.82 6.779h-1.57v-.43c.859-.388 1.419-.754 1.827-1.206.345-.366.624-.882 1.012-1.807l.086-.216h.559v2.82h3.722v.84h-3.722v6.8c0 1.484.538 2.195 1.7 2.195.602 0 1.139-.108 2.022-.43l.215.516c-1.42.581-2.559.86-3.485.86-1.549 0-2.366-.86-2.366-2.453v-7.49Zm11.249.517v6.714c0 1.162.128 1.378 1.075 1.786l.731.323v.495c-.818-.064-1.485-.086-3.119-.086-1.398 0-1.979.023-2.84.086v-.495l1.011-.408c.99-.388 1.227-.69 1.227-1.593V50.943c0-1.055-.28-1.356-1.484-1.593l-.883-.171v-.41l.281-.065c2.021-.43 2.817-.645 4.001-1.054v6.758c1.441-.668 2.84-.99 4.173-.99 2.022 0 3.033 1.184 3.033 3.594v4.65c0 .687.065 1.053.258 1.247.173.173.409.301 1.227.624l.644.258v.495c-.795-.064-1.506-.086-2.947-.086-1.677 0-2.473.023-3.118.086v-.495l.774-.301c1.14-.474 1.247-.624 1.247-1.829V57.68c0-2.26-.86-3.228-2.818-3.228-.796 0-1.549.15-2.473.517" fill="#252D37"/>
    <path fillRule="evenodd" clipRule="evenodd" d="M.427 23.428h85.97V42.07H.427V23.428Z" fill="#fff"/>
    <path fillRule="evenodd" clipRule="evenodd" d="M85.498 41.17H43.413V24.328h42.085V41.17Z" fill="#6D6D6D"/>
    <path fillRule="evenodd" clipRule="evenodd" d="M43.412 41.17H1.327V24.328h42.085V41.17Z" fill="#252D37"/>
    <path d="M1.328 31.341a103.825 103.825 0 0 0 24.49 2.917c15.854 0 30.875-3.565 44.312-9.93h-2.99c-11.534 5.038-24.263 7.843-37.653 7.843a94.154 94.154 0 0 1-28.16-4.286v3.456Z" fill="#fff"/>
    <path fillRule="evenodd" clipRule="evenodd" d="M1.328 36.978a114.752 114.752 0 0 0 19.75 1.717c20.14 0 39.059-5.218 55.493-14.367h-2.786c-15 7.798-32.036 12.21-50.107 12.21a109.13 109.13 0 0 1-22.35-2.314v2.754Z" fill="#fff"/>
  </g>
  <defs>
    <clipPath id="a">
      <path fill="#fff" transform="translate(0 23)" d="M0 0h160v41.951H0z"/>
    </clipPath>
  </defs>
</svg>
