<svg xmlns="http://www.w3.org/2000/svg" viewBox="0 0 177.4 51.8" xml:space="preserve">
  <path d="M5.8 0v3H2.4V0H1.3v7.2h1.1V3.9h3.4v3.3h1.1V0zm8.7-.1c1.9 0 3.4 1.4 3.5 3.3v.4c0 2.2-1.3 3.7-3.5 3.7S11 5.8 11 3.6c-.2-1.9 1.2-3.5 3.1-3.7h.4m0 6.5c1.7 0 2.4-1.4 2.4-2.8 0-1.5-.8-2.8-2.4-2.8-1.6 0-2.4 1.4-2.4 2.8 0 1.5.8 2.8 2.4 2.8m13.7-2.2c0 2-1 3.1-2.8 3.1-1.8 0-2.8-1.1-2.8-3.1V0h1v4.1c0 1.4.4 2.3 1.8 2.3 1.3 0 1.8-1 1.8-2.3V0h1v4.2zm8.3-3.1c-.4-.2-.9-.3-1.4-.3-.6 0-1.3.2-1.3 1 0 1.4 3.1 1.1 3.1 3.5 0 1.5-1.2 2.2-2.6 2.2-.5 0-1-.1-1.5-.3l.1-1c.5.2 1 .3 1.5.4.7.1 1.3-.4 1.4-1.2 0-1.6-3.1-1.2-3.1-3.4 0-1.3 1-2 2.3-2 .5 0 1 .1 1.5.3v.8zm6.7-.2h-2.3V0h5.5v.9h-2.2v6.3h-1zm10.2-1c1.9 0 3.4 1.4 3.5 3.3v.4c0 2.2-1.3 3.7-3.5 3.7S50 5.8 50 3.6c-.2-1.9 1.2-3.5 3.1-3.7h.3m0 6.5c1.7 0 2.4-1.4 2.4-2.8 0-1.5-.8-2.8-2.4-2.8C51.8.8 51 2.2 51 3.6c.1 1.5.8 2.8 2.4 2.8M61.5 0h1.4l3.2 5.8V0h1v7.2h-1.3l-3.3-5.9v5.9h-1zM49.7 45.2h.9V51h2.7v.8h-3.6zm7.2 0h3.7v.8h-2.7v2h2.5v.8h-2.5V51h2.7v.8h-3.7zm9.8 0h1l2.8 6.6h-1l-.7-1.7h-3.2l-.7 1.7h-1l2.8-6.6zm.5.9-1.3 3.3h2.6l-1.3-3.3zm6.7-.9h1.9c1.8-.2 3.3 1.2 3.5 2.9v.3c0 2.2-1.3 3.3-3.5 3.3h-1.9v-6.5zm.9 5.8h1c1.2.2 2.3-.7 2.5-1.9v-.6c.1-1.3-.9-2.4-2.1-2.4h-1.4V51zm8.2-5.8h.9v6.6H83v-3.3zm5.2 0h1.3l2.9 5.3v-5.3h1v6.6h-1.2l-3-5.4v5.4h-1zm14.3 1.2c-.5-.3-1.2-.5-1.8-.5-1.4 0-2.6 1.2-2.5 2.6 0 1.4 1.1 2.5 2.5 2.5.4 0 .7 0 1.1-.1v-2h-1.4v-.8h2.3v3.4c-.6.2-1.3.3-2 .3-1.8.1-3.3-1.2-3.5-3v-.4c-.1-1.8 1.4-3.3 3.2-3.4h.3c.7 0 1.3.1 1.9.3l-.1 1.1zm9.6-1.2h1.6l2 5.5 2.1-5.5h1.5v6.6h-.9v-5.7l-2.2 5.7h-.9l-2.2-5.7v5.7h-1zm11.5 0h3.6v.8h-2.7v2h2.5v.8h-2.5V51h2.7v.8h-3.6zm7.6 0h1.9c1.8-.2 3.3 1.2 3.5 2.9v.3c0 2.2-1.3 3.3-3.5 3.3h-1.9v-6.5zm.9 5.8h1c1.2.2 2.3-.7 2.5-1.9v-.6c.1-1.3-.9-2.4-2.1-2.4h-1.4V51zm8.5-5.8h.9v6.6h-.9v-3.3zm9.3 1.1c-.4-.2-.9-.4-1.4-.4-1.4 0-2.6 1.2-2.5 2.6 0 1.4 1.1 2.5 2.5 2.5.5 0 1-.1 1.4-.3l.1.9c-.5.2-1 .3-1.5.2-1.8.1-3.3-1.2-3.5-3v-.4c-.1-1.8 1.4-3.3 3.2-3.4h.3c.5 0 1 .1 1.5.3l-.1 1zm4.1-1.1h.9v6.6h-.9v-3.3zm5.1 0h1.2l2.9 5.3h.1v-5.3h.9v6.6H163l-3-5.4v5.4h-.9zm9.3 0h3.7v.8h-2.7v2h2.5v.8h-2.5V51h2.7v.8h-3.7zm-128-18.3c0-5.1 3.2-9.7 9-9.7 5.9 0 8 3.8 8 7.9v.4h-12v.4c0 5.1 1.6 8.7 5.8 8.7 2.9 0 4.2-1 5.7-3.7l.8.5c-1.4 3.2-4.6 5.2-8 5.2-6.4.3-9.3-4.2-9.3-9.7m11.9-2.4c0-3-.4-6.3-3.1-6.3-2.2 0-3.6 2.4-3.7 6.4l6.8-.1zm10.2 6.7V19.6h-3.7v-1.8h3.8v-6.1h4.5v6.1h5.4v1.8h-5.4v11.1c0 2 .6 3.6 2.8 3.6 2 0 2.2-1.6 2.4-3.3h1c-.2 3.1-2 5.8-5.6 5.8-3.5.1-5.2-2-5.2-5.6m11.4 4.2c.6 0 1.2-.1 1.8-.3.8-.2 1.1-.9 1.1-1.8V10c0-.9-.4-1.8-1.1-2.4-.9-.4-1.8-.6-2.7-.7v-.7l8.2-.4.2.2v14.4h.1c1.5-1.6 3.1-3.3 6.6-3.3 3.8 0 5.5 2.5 5.5 6.4v9.6c-.1.8.3 1.5 1 1.8.6.2 1.2.4 1.8.5v.8H86.2v-.8c.6 0 1.2-.1 1.7-.3.7-.2.9-.9.9-1.8v-9.8c0-2.8-1.3-4.2-2.9-4.2-1.9 0-3.6 1-4.4 2.7v11c-.1.7.3 1.5.9 1.8.5.3 1.1.4 1.8.5v.8H73.9v-.7zm57.5 0c.6 0 1.2-.1 1.8-.3.7-.3 1.1-1 1.1-1.8V21.4c0-.8-.4-1.6-1.1-2-.7-.4-1.6-.7-2.4-.8v-.8l7.9-.5.3.3V33c-.1.8.4 1.5 1.1 1.9.6.3 1.2.4 1.8.5v.8h-10.4l-.1-.8zm1.8-25.9c0-1.6 1.3-3 3-3 1.6-.1 3 1.2 3 2.8v.1c0 1.7-1.3 3-3 3-1.6.1-3-1.3-3-2.9m11.9 25.7-.6 1.2h-1.3l-.2-6.6h.9c.6 2.2 3.1 6 6.4 6 2.5 0 3.5-1.4 3.5-3.3 0-2.1-1.8-3-4.7-3.9-2.6-.8-5.5-2.4-5.5-6 0-3.1 2.5-5.5 6.6-5.5 1.6 0 3.2.3 4.6 1.1l.4-1.1h1.2l.3 5.9h-.8c-.7-2.5-2.7-4.9-5.4-4.9-1.5-.2-2.8.9-3 2.4v.4c0 2.2 1.5 2.7 4.6 3.8 3.3 1.1 5.5 2.7 5.5 6.1 0 3.8-3.2 6-7.3 6-1.9.1-3.7-.5-5.2-1.6m17-4V19.6h-3.7v-1.8h3.8v-6.1h4.5v6.1h5.4v1.8h-5.4v11.1c0 2 .6 3.6 2.8 3.6 2 0 2.2-1.6 2.4-3.3h1c-.2 3.1-2 5.8-5.6 5.8-3.5.1-5.2-2-5.2-5.6M128 34.6c-.6-.4-1-1.2-1-1.9V6.5l-.3-.3-8.9.4v.8c1.2.1 2.4.4 3.5.9.7.6 1 1.4 1 2.3v7.7c-1.5-.7-3.1-1-4.8-1-2.3 0-4.4.9-6.1 2.5-.6.6-1.2 1.3-1.6 2.1-.9 1.5-1.3 3.2-1.3 4.9 0 1.9.4 3.7 1.2 5.4-.1.4-.3.8-.5 1.3-.5 1.4-1.8 2.3-3.3 2.3-3.3 0-4.5-4.2-4.5-9 0-3.9.8-8.5 4.5-8.5.6 0 1.2.1 1.7.4.3.2.5.4.7.6 0-.1.1-.1.1-.2.1-.1.2-.2.2-.3.4-.4 1-.9 1-.9-.2-.1-.5-.2-.7-.2-.1 0-.6-.2-.7-.2 0 0-.4-.1-.6-.1-.6-.1-1.2-.1-1.7-.1-5.9 0-9.7 4-9.7 9.8 0 6 4.4 9.7 9.5 9.7 2.1.1 4.3-.6 6-1.8l.1-.1c1.1-.8 2-1.9 2.6-3.1.7-1.5 1.1-3.2 1.1-4.9 0-1.7-.4-3.3-1.1-4.8.1-.3.3-.7.4-1 .8-1.7 2.1-2.7 3.5-2.7 1.9 0 3.5 1.3 3.9 3.2v11.5c-.8 1.2-2.2 1.9-3.6 1.9-.9.1-1.8-.2-2.5-.8-.5.8-1.2 1.6-2 2.2.9.3 1.8.5 2.8.5 2-.1 3.9-1 5.3-2.5h.2v1.8l.3.3 7.7-.3v-.8c-.8-.1-1.6-.4-2.4-.8m-90.3.2c-.5-.2-.8-.6-1-1V11.7H35L21.2 32.6V11.7h-1.8L5.8 32.6c-.6 1.2-1.8 2.1-3.1 2.5-.8.1-1.6.2-2.3.3v.8H12v-.8c-.7-.1-1.3-.1-2-.3-.6-.1-1.2-.3-1.7-.5-.4-.1-.7-.5-.8-.9 0-.3 0-.6.2-.9 1-1.6 8.7-13.7 8.7-13.7v17.1H21l10.8-17.1v14.2c0 .6-.4 1.2-.9 1.5-.1 0-.1.1-.2.1-1 .3-2 .4-3 .5v.8h12.6v-.8c-.8-.1-1.7-.3-2.6-.6m137.3-22c-1.1 0-2.1-.9-2.1-2.1s.9-2.1 2.1-2.1c1.1 0 2.1.9 2.1 2 0 1.2-.9 2.1-2.1 2.2.1 0 0 0 0 0m0-4c-1 0-1.9.8-1.9 1.9s.8 1.9 1.9 1.9c1 0 1.9-.8 1.9-1.9 0-1-.8-1.9-1.9-1.9m.5 3.2-.5-1.2h-.4V12h-.3V9.4h.8c.6 0 .8.3.8.7 0 .3-.2.6-.5.7l.6 1.2h-.5zm-.9-1.4h.5c.4 0 .5-.1.5-.5 0-.3-.1-.4-.5-.4h-.4l-.1.9z" fill="#191818"/>
</svg>
