<svg fill="none" xmlns="http://www.w3.org/2000/svg" viewBox="0 0 160 88">
  <path d="M32.014 50.04c.36.138.332.913 0 1.05a99.533 99.533 0 0 0-4.453-.11c-1.715 0-3.277 0-4.882.11-.29-.138-.428-.843-.069-1.05l.982-.194c1.383-.249 1.563-.498 1.563-2.987V31.965h-.07a95.653 95.653 0 0 0-2.253 4.55l-3.14 6.417c-1.23 2.544-3.056 6.596-3.706 8.297a1.147 1.147 0 0 1-.954 0c-.622-1.977-2.185-5.532-3.015-7.37l-3.25-6.915a176.432 176.432 0 0 1-2.115-4.923c0 1.784-.152 4.619-.221 6.154 0 2.226-.139 5.462-.139 8.449 0 2.406 0 2.96 1.604 3.25l1.204.221c.248.208.248.913 0 1.051a71.608 71.608 0 0 0-3.831-.11c-1.355 0-2.475 0-3.9.11a.816.816 0 0 1-.11-1.05l.622-.084c1.756-.221 2.005-.76 2.268-2.987.263-2.226.36-4.66.54-8.45.151-2.475.359-5.53.359-7.716 0-1.715-.54-2.448-1.964-2.697l-1.23-.22c-.222-.264-.194-.955.137-1.066 1.093.083 2.075.111 3.43.111s2.545 0 3.9-.11c.236 2.104.88 4.142 1.894 6.001l3.997 8.408c.29.622 1.244 2.448 1.715 3.277.58-1.05 1.064-2.074 1.894-3.789l3.43-6.983a38.498 38.498 0 0 0 2.945-6.915c.982.083 2.185.111 2.987.111 1.535 0 2.766 0 3.83-.11a.651.651 0 0 1 .112 1.064l-1.203.18c-1.605.249-1.964.844-1.964 2.766 0 5.393 0 10.786.318 16.18.11 2.433.512 2.655 1.687 2.834l1.05.139Zm9.016 0c2.503 0 3.236-2.987 3.236-5.794 0-3.07-1.05-6.666-3.748-6.666-1.867 0-3.319 1.895-3.319 5.933 0 3.319 1.204 6.527 3.831 6.527Zm7.537-6.417c0 5.172-3.637 7.869-7.98 7.869-4.342 0-7.688-2.6-7.688-7.426a7.759 7.759 0 0 1 7.979-7.952 7.316 7.316 0 0 1 7.689 7.51m7.163 3.028c0 2.696.139 3.125 1.383 3.305l.54.083c.262.249.22.913 0 1.05a69.791 69.791 0 0 0-3.859-.11c-1.341 0-2.406 0-3.941.11-.29-.138-.318-.801 0-1.05l.802-.11c1.245-.18 1.383-.582 1.383-3.278v-5.366c0-1.632 0-2.074-.913-2.614l-.428-.262a.968.968 0 0 1 0-.83 24.218 24.218 0 0 0 4.618-1.978.511.511 0 0 1 .47.29c-.068.692-.068 1.384-.068 1.688 0 .304.11.318.331.36 1.701-.955 2.766-1.826 4.993-1.826 2.945 0 4.328 2.047 4.328 4.882v5.656c0 2.696.152 3.125 1.383 3.277l.844.11c.248.25.22.913-.084 1.052a87.627 87.627 0 0 0-4.148-.11c-1.383 0-2.448 0-3.72.11-.29-.139-.332-.802-.07-1.051l.54-.083c1.245-.18 1.383-.609 1.383-3.305v-5.034c0-1.853-.72-3.319-2.904-3.319a2.945 2.945 0 0 0-2.406 1.134c-.484.65-.512.982-.512 2.337l.055 4.882Zm19.029-8.422c-.664 0-.705.069-.705 1.245v5.6c0 2.296.332 4.342 2.669 4.342a2.766 2.766 0 0 0 1.742-.663.567.567 0 0 1 .47.733 5.67 5.67 0 0 1-4.619 2.005c-3.457 0-4.148-2.005-4.148-4.55v-7.398c0-1.273 0-1.383-.664-1.383h-1.272a.609.609 0 0 1-.11-.982 11.576 11.576 0 0 0 2.876-1.535 6.915 6.915 0 0 0 2.005-2.254.775.775 0 0 1 1.023.18v2.254c0 .58 0 .691.692.691h3.609c.221.11.29.401.29.76a1.161 1.161 0 0 1-.47.955h-3.388Zm12.874 2.655c.61.04 1.22-.06 1.785-.29a.914.914 0 0 0 .359-.76 2.254 2.254 0 0 0-2.406-2.38 3.748 3.748 0 0 0-3.568 3.14c0 .138 0 .249.512.249l3.319.041Zm-3.36 1.466c-.691 0-.76 0-.76.47a5.531 5.531 0 0 0 5.531 5.905 3.775 3.775 0 0 0 3.499-1.825.706.706 0 0 1 .802.58 6.583 6.583 0 0 1-6.223 4.01 6.915 6.915 0 0 1-7.025-7.287 7.702 7.702 0 0 1 7.716-8.09 5.117 5.117 0 0 1 5.532 4.923 1.55 1.55 0 0 1-.18.83c-.221.332-1.05.484-2.517.484h-6.375Zm69.227-1.466a3.927 3.927 0 0 0 1.784-.249.92.92 0 0 0 .374-.76 2.258 2.258 0 0 0-2.407-2.379 3.75 3.75 0 0 0-3.581 3.098c0 .138.083.249.511.249l3.319.041Zm-3.346 1.466c-.692 0-.775 0-.775.47a5.535 5.535 0 0 0 3.325 5.451 5.533 5.533 0 0 0 2.207.454 3.747 3.747 0 0 0 3.499-1.825.693.693 0 0 1 .802.58 6.554 6.554 0 0 1-6.154 4.01 6.914 6.914 0 0 1-7.039-7.287 7.687 7.687 0 0 1 2.11-5.694 7.7 7.7 0 0 1 5.579-2.396 5.133 5.133 0 0 1 5.045 2.927c.295.626.461 1.305.486 1.996a1.56 1.56 0 0 1-.193.83c-.222.332-1.051.484-2.503.484h-6.389Zm-48.346-4.011c-.76 0-.76.07-.76 1.134v7.178c0 2.696.138 3.084 1.382 3.236l1.383.152a.757.757 0 0 1-.069 1.05 106.76 106.76 0 0 0-4.77-.11c-1.204 0-2.435 0-3.942.11a.774.774 0 0 1 0-1.05l.802-.11c1.245-.194 1.383-.582 1.383-3.278v-7.219c0-.982 0-1.092-.65-1.092h-1.383a.54.54 0 0 1-.11-.844l1.562-.802a.843.843 0 0 0 .512-.802v-.65a16.29 16.29 0 0 1 .774-5.214 7.081 7.081 0 0 1 6.873-5.102c2.517 0 4.149 1.134 4.149 2.669a1.815 1.815 0 0 1-1.77 1.742 1.217 1.217 0 0 1-1.065-.512c-1.162-1.673-1.964-2.406-2.766-2.406-1.244 0-2.226 2.475-2.226 7.952v1.092c0 1.093 0 1.162.802 1.162h3.83a.75.75 0 0 1 .208.58 1.173 1.173 0 0 1-.512 1.135h-3.637Zm7.302-7.758a2.227 2.227 0 0 1 4.439 0 2.224 2.224 0 0 1-2.22 2.052 2.226 2.226 0 0 1-2.219-2.052Zm4.287 16.07c0 2.696.138 3.056 1.383 3.277l.649.11c.263.25.222.913 0 1.052a75.744 75.744 0 0 0-3.941-.11c-1.355 0-2.434 0-3.817.11-.29-.139-.331-.802-.083-1.051l.664-.11c1.231-.222 1.383-.582 1.383-3.278v-5.366c0-1.632 0-2.074-.913-2.614l-.442-.262a1.022 1.022 0 0 1 0-.83 21.858 21.858 0 0 0 4.743-1.978.66.66 0 0 1 .498.29c0 1.204-.097 2.96-.097 4.454l-.027 6.306Zm11.422 3.388c2.517 0 3.25-2.987 3.25-5.794 0-3.07-1.065-6.666-3.761-6.666-1.854 0-3.306 1.895-3.306 5.933 0 3.319 1.204 6.527 3.817 6.527Zm7.551-6.417a7.49 7.49 0 0 1-2.195 5.704 7.473 7.473 0 0 1-5.715 2.165c-4.149 0-7.689-2.655-7.689-7.426a7.751 7.751 0 0 1 4.896-7.41 7.759 7.759 0 0 1 3.083-.542 7.32 7.32 0 0 1 5.488 2.072 7.319 7.319 0 0 1 2.201 5.437m3.264-2.337c0-1.632 0-2.074-.913-2.614l-.442-.262a1.022 1.022 0 0 1 0-.83 25.56 25.56 0 0 0 4.591-1.978.51.51 0 0 1 .511.332c0 .692-.069 1.314-.069 1.646 0 .332.139.429.36.429 1.134-.802 2.337-1.895 3.568-1.895a1.84 1.84 0 0 1 2.005 1.784 2.003 2.003 0 0 1-2.033 2.116 1.826 1.826 0 0 1-.982-.29 3.29 3.29 0 0 0-1.756-.692c-.844 0-1.051.844-1.051 2.628v4.992c0 2.696.138 3.097 1.383 3.236l1.383.152a.76.76 0 0 1 0 1.05c-2.185-.068-3.43-.11-4.771-.11-1.342 0-2.407 0-3.789.11a.773.773 0 0 1-.083-1.05l.663-.11c1.231-.222 1.383-.582 1.383-3.278l.042-5.366Z" fill="#252D37"/>
</svg>
