<svg fill="none" xmlns="http://www.w3.org/2000/svg" viewBox="0 0 160 88">
  <g clip-path="url(#a)" fill="#252D37">
    <path d="M0 33.911v11.07h4.079v-6.514h5.31V58.4H4.984v3.993h15.448v-3.972h-4.378V38.489h5.431v3.374h4.03V33.91H0Z"/>
    <path d="M33.55 43.08v3.773h3.126v9.81l-.193.142a6.656 6.656 0 0 1-3.858 1.538 2.513 2.513 0 0 1-2.036-.712 3.737 3.737 0 0 1-.562-2.357V43.08h-8.543v3.773h3.04v10.059a5.794 5.794 0 0 0 1.53 4.314 5.823 5.823 0 0 0 4.272 1.509 9.923 9.923 0 0 0 5.652-1.93l.712-.498v2.136h7.83v-3.744h-2.299V43.08h-8.67Zm16.68-7.375a7.19 7.19 0 0 0-1.823 5.04v2.328h-2.762v3.773h2.762V58.69h-2.762v3.745h11.461V58.69h-3.189V46.846h3.19v-3.773h-3.19v-2.684c0-2.705 1.167-3.274 2.136-3.274.868 0 1.544.64 2.029 1.879l3.8-2.968c-1.266-1.538-3.316-2.314-6.093-2.314-2.47 0-4.342.712-5.56 2"/>
    <path d="M64.702 36.908 60.85 39.67v3.417h-2.577v3.766h2.577v11.063c0 3.288 1.544 4.819 4.862 4.819a12.294 12.294 0 0 0 4.42-.89v-3.56a5.6 5.6 0 0 1-1.566.278 2.137 2.137 0 0 1-1.772-.598 3.26 3.26 0 0 1-.392-1.879v-9.254h3.73v-3.745h-3.73v-7.403l-1.701 1.224Zm7.709 7.155a5.096 5.096 0 0 0-1.936 4.029 4.87 4.87 0 0 0 2.072 4.079c1.423 1.053 3.758 1.843 6.976 2.37 1.135.129 2.245.421 3.296.869a1.623 1.623 0 0 1 .968 1.48 1.908 1.908 0 0 1-1.025 1.659 4.983 4.983 0 0 1-2.634.598 5.76 5.76 0 0 1-3.246-.897 3.062 3.062 0 0 1-1.424-2.228h-4.221v6.407h4.178v-1.424l.485.541c.832.89 2.406 1.353 4.755 1.353 2.513 0 4.477-.613 5.837-1.823a5.987 5.987 0 0 0 2.036-4.663 5.61 5.61 0 0 0-1.068-3.43 5.952 5.952 0 0 0-2.847-2.051 37.737 37.737 0 0 0-5.595-1.288 13.082 13.082 0 0 1-3.026-.748 1.245 1.245 0 0 1-.712-1.146c0-1.21 1.04-1.83 3.09-1.83 2.534 0 4.086.712 4.627 2.136h4.164V42.71h-4.064v.84l-.392-.17a12.991 12.991 0 0 0-5.026-.983 7.945 7.945 0 0 0-5.268 1.666m20.709 2.868v-.54c.975-.079 1.423-.15 1.537-.94.103-.772.148-1.55.136-2.328v-7.44c0-1.046-.043-1.088-1.695-1.202v-.541h3.816c.712 1.673 1.46 3.324 2.193 4.983l2.221 4.983 2.249-5.033c.755-1.652 1.524-3.303 2.136-4.983h3.773v.54c-1.638.115-1.687.157-1.687 1.204v9.553c0 1.054.049 1.09 1.687 1.203v.541h-5.24v-.54c1.652-.115 1.687-.15 1.687-1.204V35.67h-.057l-4.897 11.04h-.506L95.69 35.67v7.453c-.015.778.028 1.556.128 2.328.114.79.57.847 1.787.94v.54H93.12Zm19.227-4.933c0 1.95.435 4.207 2.762 4.207 1.488 0 2.2-.904 2.727-1.993l.562.299a3.616 3.616 0 0 1-3.659 2.648c-3.061.036-4.342-1.787-4.342-4.748 0-2.848 1.388-4.905 4.321-4.905 3.438 0 3.794 2.67 3.794 3.773 0 .62-.356.712-.754.712l-5.411.007Zm3.56-.712c.527 0 .633-.242.633-.598 0-.712-.206-2.52-1.95-2.52-1.951 0-2.236 2.35-2.236 3.118h3.553Zm10.948 5.645-.156-.128v-.918a4.55 4.55 0 0 1-2.905 1.274c-2.484 0-3.929-1.858-3.929-4.641a5.227 5.227 0 0 1 1.295-3.716 4.68 4.68 0 0 1 3.474-1.296 4.443 4.443 0 0 1 2.079.477V34.88c0-.712-.114-.811-.598-.868l-.712-.071v-.47l2.954-.47.128.114V45.3c0 .954.079.997 1.424 1.09v.54h-3.054Zm-.142-6.492a2.283 2.283 0 0 0-.171-1.09 1.973 1.973 0 0 0-1.929-1.188c-1.922 0-2.805 1.694-2.805 4.136 0 2.136.869 3.851 2.598 3.851a2.136 2.136 0 0 0 2.179-1.352c.101-.342.144-.698.128-1.054V40.44Zm7.517-2.933.128.114v7.681c0 .954.079.997 1.424 1.09v.54h-4.584v-.54c1.352-.093 1.423-.136 1.423-1.09v-5.894c0-.712-.114-.769-.598-.847l-.711-.093v-.484l2.918-.477Zm.37-2.847a1.146 1.146 0 1 1-2.284-.179 1.146 1.146 0 0 1 2.284.179m9.198 9.525.548.263a3.624 3.624 0 0 1-3.609 2.705c-2.812 0-4.357-1.602-4.357-4.734 0-2.499 1.146-4.919 4.563-4.919 2.029 0 3.268.954 3.268 1.822 0 .712-.712.954-1.104.954-.391 0-.47-.185-.583-.484-.378-1.018-.919-1.637-1.787-1.637-1.296 0-2.399 1.125-2.399 3.922 0 1.766.527 4.1 2.762 4.1 1.367 0 2.135-.711 2.698-1.992m9.005.363c0 1.188.32 1.544.655 1.616.317.067.644.067.961 0l.114.448c-.69.35-1.448.542-2.221.562-.655 0-.954-.434-1.217-1.124a5.697 5.697 0 0 1-2.798 1.124 2.56 2.56 0 0 1-2.53-1.621 2.553 2.553 0 0 1-.175-1.048 2.22 2.22 0 0 1 1.765-2.25c1.488-.462 3.31-.932 3.78-1.423v-.79c0-1.503-.868-1.88-1.601-1.88-.734 0-1.517.456-1.93 1.844-.099.32-.206.527-.605.527-.398 0-1.068-.285-1.068-.883 0-1.032 1.666-2.136 3.788-2.136 2.847 0 3.082 1.424 3.082 2.499v4.535Zm-1.687-2.948c-.69.352-1.403.655-2.136.905-1.046.391-1.466.847-1.466 1.73 0 1.103.569 1.928 1.73 1.928a1.794 1.794 0 0 0 1.9-1.914l-.028-2.649Zm7.474 3.702c0 .954.072.997 1.424 1.09v.54h-4.584v-.54c1.352-.093 1.423-.136 1.423-1.09V34.88c0-.712-.113-.811-.605-.868l-.712-.071v-.47l2.919-.47.135.114V45.3Zm-54.522 7.51h-.562c-.356-2.22-1.687-3.004-3.602-3.004-3.495 0-4.713 3.075-4.713 6.158 0 2.27.805 6.086 4.67 6.086 2.463 0 3.424-1.423 3.944-3.38h.562l-.256 3.131a9.88 9.88 0 0 1-4.136.904c-2.1 0-3.944-.434-5.104-1.594a7.055 7.055 0 0 1-1.787-5.09 7.168 7.168 0 0 1 1.709-4.94c1.124-1.26 2.99-1.937 5.296-1.937a9.967 9.967 0 0 1 3.979.712v2.954Zm3.61 4.677c0 1.95.434 4.2 2.762 4.2 1.48 0 2.199-.897 2.719-1.986l.569.3a3.623 3.623 0 0 1-3.666 2.647c-3.061.036-4.335-1.786-4.335-4.748 0-2.847 1.388-4.905 4.314-4.905 3.438 0 3.794 2.67 3.794 3.773 0 .62-.356.712-.712.712l-5.445.007Zm3.559-.712c.527 0 .641-.242.641-.598 0-.711-.207-2.52-1.951-2.52-1.958 0-2.235 2.35-2.235 3.118h3.545Zm12.749 3.987c0 .954.079.997 1.424 1.09v.54h-4.577v-.54c1.352-.093 1.424-.136 1.424-1.09v-4.407c0-1.63-.712-2.349-1.972-2.349a2.594 2.594 0 0 0-2.228 1.353 2.01 2.01 0 0 0-.193 1.032v4.37c0 .955.079.998 1.424 1.09v.541h-4.584v-.54c1.352-.093 1.423-.136 1.423-1.09v-5.887c0-.676-.114-.77-.598-.847l-.711-.093v-.47l2.797-.47.264 1.424c1.16-.747 2.021-1.424 3.417-1.424 1.722 0 2.754 1.09 2.754 2.983l-.064 4.784Zm4.813-6.791v5.823c0 1.423.598 1.88 1.238 1.88.457.012.911-.073 1.332-.25l.156.399a4.87 4.87 0 0 1-2.406.825 1.93 1.93 0 0 1-2.086-2.135v-6.542h-1.352v-.748h1.423l1.147-2.37h.541v2.37h2.42v.748h-2.413Zm5.325 3.516c0 1.95.434 4.2 2.762 4.2 1.487 0 2.199-.897 2.726-1.986l.562.3a3.613 3.613 0 0 1-3.666 2.647c-3.054.036-4.335-1.786-4.335-4.748 0-2.847 1.424-4.905 4.321-4.905 3.438 0 3.794 2.67 3.794 3.773 0 .62-.356.712-.754.712l-5.41.007Zm3.559-.712c.527 0 .633-.242.633-.598 0-.711-.206-2.52-1.95-2.52-1.951 0-2.235 2.35-2.235 3.118h3.552Zm6.606-2.278c1.239-1.089 1.801-1.502 2.477-1.502a.904.904 0 0 1 .997.919.99.99 0 0 1-.869 1.053.803.803 0 0 1-.37-.092 2.504 2.504 0 0 0-1.167-.413c-.434 0-1.068.484-1.068 1.93v4.37c0 .954.114.997 1.78 1.09v.54h-4.983v-.54c1.317-.093 1.423-.136 1.423-1.09v-5.887c0-.676-.114-.769-.605-.847l-.712-.093v-.47l2.848-.47.249 1.502Z"/>
  </g>
  <defs>
    <clipPath id="a">
      <path fill="#fff" transform="translate(0 33)" d="M0 0h160v29.899H0z"/>
    </clipPath>
  </defs>
</svg>
