<svg xmlns="http://www.w3.org/2000/svg" xml:space="preserve" style="enable-background:new 0 0 460 321" viewBox="0 0 460 321"><path d="m37.4 82.7 5.2-2.6.3-5.9 7.3-6.2 1.4-5.5 4.3-2.4 6.1 1.2 11.7 7.4 9.6 9.4L92 59l6.4-8.6 5.7-2.8 2.7 4.8-3.5 13-1.4 12.7 4.8 13.5 9.3 13.9-28 32.8-17.3-9.7-16.1-10.3-10.3-6.5-8.5-8-3.2-5.8 1.1-5.7 3.9-2.6-.2-7z" style="fill:#b1b1b1"/><path d="M87.3 140.4c-.3 0-.7-.1-.9-.4-.1-.1-5.1-5.5-13.9-9.3-9.3-3.9-24.8-15.9-25.5-16.4 0 0-.1 0-.1-.1-1.5-.4-2.9-1.3-3.8-2-.3-.3-7.6-6.3-9.8-10.5-1.7-3.2-2.1-6.5-1.2-8.8.7-1.7 2-2.8 3.9-3.4.1 0 .2-.1.3-.1-.8-2.4-.6-4.8.4-6.7 1-1.8 2.7-3 4.7-3.4-1.4-5.8 4.2-9.4 8-11.5-.5-1.5-.2-3.2.7-4.7 1.6-2.6 5.4-4.7 10.2-3.6 6.1 1.4 18.4 12.6 22.5 16.5 2-4.8 8.1-18.3 14-25.2 4.6-5.3 7.6-4.4 8.7-3.7 3 1.8 3.1 7.4.5 14.4-4.5 11.8-3.6 18.2 0 27.2 2.9 7.1 9.9 15.4 10 15.5.4.5.4 1.3-.1 1.8-.5.4-1.3.4-1.8-.1-.3-.4-7.4-8.7-10.4-16.2-3.8-9.4-4.8-16.5 0-29 2.7-6.9 1.8-10.6.6-11.3-.8-.5-2.8 0-5.5 3.2-6.7 7.8-13.9 25.4-14.3 26.2L79.1 94c-.2.7-.9 1-1.6.8-.7-.2-1-.9-.8-1.6l5.2-14.6C79 75.8 73.7 71 68.7 67.2c2.3 2 6.3 6.2 10 11.8 1.7 2.5 1.3 7-.7 9.4-1.2 1.4-2.9 1.8-4.6 1-.3-.2-.6-.3-1-.5 1.1 2.4 1.7 5.3-.2 7.4-3.3 3.8-8.6 2.7-9.4 2.5 1 2.6 1.5 5.7-.4 7.9-2.4 2.7-6.1 1.8-8.9.2.4 1.9.4 4.1-1.2 6-.5.5-1 .9-1.5 1.2 4.8 3.5 15.7 11.4 22.6 14.3 9.4 4 14.6 9.6 14.8 9.9.5.5.4 1.3-.1 1.8-.2.2-.5.3-.8.3zm-50-48.9c-.1.1-.3.3-.5.3-1.2.4-1.9 1-2.3 2-.7 1.6-.3 4.2 1.1 6.7 2 3.7 9.1 9.7 9.2 9.7 0 0 3.9 3.2 5.8 1 2.1-2.4-.5-6.8-.6-6.8l-.1-.1c-3-2.4-9.7-8-12.3-12.3-.2-.2-.2-.4-.3-.5zm5.1-9.8c-1.5.2-2.7.9-3.4 2.2-1 1.8-.8 4.4.7 6.7 3.1 5.2 13.1 12.8 13.2 12.8.1.1 5.5 4.2 7.7 1.6 1.9-2.2-.5-7-1.9-9-5.1-3.6-13.7-10-16.3-14.3zm21.2 14.6c.8.2 4.6.8 6.8-1.8 1.8-2.1-1.1-6.6-2.6-8.6-8.3-5.7-15.1-13.7-17-16-5.3 3-8.2 5.7-6.5 9.8 1.3 3.3 9.7 9.8 15.6 13.9.3.1.5.2.7.5 1.1.9 2.2 1.7 3 2.2zm5.9-12.1c1.6 1.1 3.3 2.1 5 2.9.5.2 1 .3 1.6-.4 1.3-1.5 1.6-4.8.5-6.3-5.1-7.6-11-12.8-11.1-12.8-.5-.5-.6-1.2-.1-1.8.2-.3.6-.4.9-.4-2.5-1.7-4.8-3-6.4-3.4-3.6-.8-6.4.7-7.6 2.5-.4.6-1.1 2.1 0 3.5.9 1.1 7.8 9.7 16.4 15.7.3.1.5.2.7.4 0 0 .1 0 .1.1z"/><path d="M121.6 92.8c-12.4 9.9-36.2 32.5-42 53.1 23 29.6 85 73.9 179.9 73.4 21.9 25.5 79.3 84.5 150.2 99.4l20.6-58c-16.1-5.2-88.8-46.3-101.6-57.4 50-19.7 78.7-96.7 37.4-137.3-36.9-36.2-108.6-36.6-135.9 7.3-16.2 26.1-20.2 55-7 82.8-46.6-20-63.9-28.4-101.6-63.3zm172 66.7s-23.1-39.6-4.8-56.6c18.4-17 37.8-2.3 41 14.3 4.5 23.5-36.2 42.3-36.2 42.3z" style="fill-rule:evenodd;clip-rule:evenodd;fill:#feed5a"/><path d="M409.8 320h-.3c-30.9-6.5-62.6-21.9-94-45.9-26.6-20.3-46.7-42-56.5-53.4h-1.1c-42 0-81-8.6-115.8-25.5-26.4-12.9-49.5-30.5-63.4-48.3-.2-.3-.3-.7-.2-1.1 2.6-9.3 8.9-19.7 18.8-31.1 9.8-11.2 19.8-19.6 23.6-22.7.5-.4 1.2-.4 1.6.1 36.7 34 54.6 43 98.4 61.8-11.3-26.1-8.4-54 8.4-81C240.9 54 261.2 42 286.2 39.1c29.9-3.6 60.9 6.4 81 26.1 17 16.7 23.7 41.6 18.3 68.2-6.3 31.1-28 59.1-54.2 70.3 16.2 12.5 84.3 50.9 99.5 55.8.3.1.6.3.7.6.1.3.2.7.1 1l-20.6 58c-.2.5-.7.9-1.2.9zM260.5 218.6c62.9 73.3 124 93.4 148.5 98.7l19.8-55.8c-18.5-6.8-87.9-46.1-100.8-57.2-20.2-17-35.2-43.4-35.5-44.1-.3-.5-5.9-10.2-9.4-22.2-4.7-16.2-3-28.6 4.8-35.9 7.7-7.1 16.5-9.5 24.8-6.8 9 3 16.4 11.7 18.3 21.8 1.9 10.1-3.9 20.8-16.9 31.1-7.8 6.2-15.8 10.4-18.8 11.9 3.1 5.2 16.4 27 33.8 41.8 26-10.6 47.6-38.2 53.9-69 5.3-26.2-.9-49.6-17.6-65.9-19.5-19.2-49.7-28.9-78.9-25.4-24.3 2.9-43.8 14.4-55.1 32.4-17 27.2-19.4 55.4-6.9 81.6v.2c9.4 26.1 19.8 44.3 36 62.8 0-.1 0-.1 0 0zM81 145.7c6.8 8.6 25.8 29.4 62.2 47.1 34.2 16.6 72.4 25.1 113.6 25.3-15.3-17.9-25.4-35.8-34.5-61.1-45.6-19.5-63.6-28.2-100.8-62.5-15.6 12.7-35.1 33.3-40.5 51.2zm224.9-49.1c-4.6 0-10.2 1.7-16.2 7.2-15.8 14.6 1.1 47.8 4.5 54 6.3-3.1 38.3-20.2 34.5-40.4-1.8-9.2-8.4-17.2-16.6-19.9-1.9-.5-3.9-.9-6.2-.9z"/></svg>