<svg xmlns="http://www.w3.org/2000/svg" xml:space="preserve" id="Layer_1" x="0" y="0" style="enable-background:new 0 0 445 411" version="1.1" viewBox="0 0 445 411"><style>.st0{fill:#fff}.st1{fill:#07b47e}</style><path d="M357.2 58.3 437.1 84c3.3 1.1 5.1 4.6 4.1 7.9l-14.3 44.4c-1.1 3.3-4.6 5.1-7.9 4.1l-79.8-25.8c-3.3-1.1-5.1-4.6-4.1-7.9l14.3-44.4c1-3.3 4.5-5.1 7.8-4z" class="st0"/><path d="M420.8 142c-.8 0-1.6-.1-2.3-.4l-79.8-25.8c-1.9-.6-3.5-1.9-4.4-3.7s-1.1-3.8-.5-5.8l14.3-44.4c1.3-4 5.5-6.1 9.5-4.9l79.8 25.8c1.9.6 3.5 1.9 4.4 3.7.9 1.8 1.1 3.8.5 5.8L428 136.7c-.6 1.9-1.9 3.5-3.7 4.4-1.1.6-2.3.9-3.5.9zm-65.5-82.8c-2.1 0-4.1 1.4-4.8 3.5l-14.3 44.4c-.4 1.3-.3 2.6.3 3.8.6 1.2 1.7 2.1 2.9 2.5l79.8 25.8c1.3.4 2.6.3 3.8-.3 1.2-.6 2.1-1.7 2.5-2.9L440 91.6c.4-1.3.3-2.6-.3-3.8-.6-1.2-1.7-2.1-2.9-2.5L357 59.5c-.7-.2-1.2-.3-1.7-.3z"/><path d="M423.3 105.2c-.1 0-.3 0-.4-.1l-40.3-13c-.7-.2-1-.9-.8-1.6.2-.7.9-1 1.6-.8l40.3 13c.7.2 1 .9.8 1.6-.1.5-.6.9-1.2.9zM420.3 112.7c-.1 0-.3 0-.4-.1l-40.3-12.9c-.7-.2-1-.9-.8-1.6.2-.7.9-1 1.6-.8l40.3 12.9c.7.2 1 .9.8 1.6-.2.6-.7.9-1.2.9zM400.2 114.7c-.1 0-.3 0-.4-.1l-22.3-7.3c-.7-.2-1-.9-.8-1.6.2-.7.9-1 1.6-.8l22.3 7.3c.7.2 1 .9.8 1.6-.1.6-.6.9-1.2.9z"/><path d="m362.9 79.2 5.9 2c.6.2.9.8.7 1.4l-6.8 20.4c-.2.6-.8.9-1.4.7l-5.9-2c-.6-.2-.9-.8-.7-1.4l6.8-20.4c.2-.6.8-.9 1.4-.7z" class="st1"/><path d="m374.3 92.1-1.9 5.9c-.2.6-.8.9-1.4.7L350.6 92c-.6-.2-.9-.8-.7-1.4l1.9-5.9c.2-.6.8-.9 1.4-.7l20.4 6.7c.6.2.9.9.7 1.4z" class="st1"/><path d="m254.5 104.8-7.5 13 52.2 48.7 14.6-16.6 49.2-22.6-5-8.5-7.5-1-16.1 5h-17.1l-3-9-1.5-12 4.5-21.1 11.5-14.6 10-6.5 24.6-4 3-5.5-2-7.5-6-1h-23.6l-20.1 13 7.5-20.1 11-18.1 1.5-5.5-1.5-5.5h-8l-7.5 8-9 9.5 5-15.6-1.5-5.5-8.5 1-11 19.1L280.2 46l7-33.6-4.5-2-4 4-10 23.1-8 23.1-6.2 44.2z" style="fill:#e4ddc9"/><path d="m299.2 168.3-53.9-50.2 7.4-12.7 6.5-44.1c0-.2 4.8-15.9 8.6-25.2 2.9-7.3 7.6-18.2 10.1-23.2 1.6-3.2 4.4-3.9 6.4-3.4 2.3.5 4 2.4 4 4.5 0 1.7-1.1 5.8-2.9 12.3-1.1 4-2.2 8.1-2.7 10.5-.3 1.4-.5 2.9-.8 4.3 2.1-4.1 4.6-9 5.9-12.1 6-13.8 13.2-24.2 14.8-25.9 2.5-2.8 6.3-3.7 9.2-2.3 2.6 1.3 3.8 4.3 3 7.9-.5 2.6-2 6.3-3.8 10.2 5-6.6 10-12.4 12.5-13.6 1.4-.7 6.1-2.8 9.5-.7 1.9 1.2 2.8 3.3 2.8 6.3 0 5.2-3.6 10.7-7.5 16.6-2.1 3.1-4.2 6.4-5.7 9.5-2.7 5.8-5 11.2-6.4 14.8 4.5-3.4 12.4-9.1 17.4-11 7.2-2.8 27.8-.2 28.7-.1h.2l.5.3c3.1 1.7 4.8 4.4 4.8 7.6 0 3.3-1.9 6.5-4.8 8.1-2.9 1.6-9.9 2.4-16.1 3.2-3.9.5-7.7.9-9.2 1.4-5.4 1.9-15.1 13.9-18.4 18.5-4.7 9.7-7.6 30.2-1.8 41.3 2.4.3 11.3 1.1 17-.1 4.9-1 12.2-4.4 12.3-4.4l.3-.1c5.2-.9 9.3-.1 12.3 2.3 2.9 2.4 4.1 5.9 4.2 8.4v.8l-49.2 23-15.2 17.3zm-50.7-50.7 50.5 47.1 13.9-15.8.2-.1 47.9-22.2c-.3-1.9-1.2-4.1-3.2-5.7-2.4-1.9-5.8-2.6-10.2-1.8-1.1.5-7.8 3.6-12.7 4.5-7 1.4-18 .1-18.5 0l-.6-.1-.3-.5c-5.1-9-5.5-29.9 1.5-44.3l.1-.2c.5-.7 12.4-17 19.7-19.5 1.8-.6 5.4-1 9.7-1.5 5.7-.7 12.7-1.5 15.2-2.9 2.1-1.2 3.5-3.5 3.5-5.9 0-1.5-.6-3.7-3.3-5.3-2.4-.3-21-2.4-27.3 0-6.5 2.5-19 12.4-20.2 13.3l-8.5 9.5c-.5.5-1.2.6-1.8.1-.5-.5-.6-1.3-.1-1.8l8.4-9.4c.5-1.5 3.7-9.8 8-19 1.6-3.3 3.7-6.6 5.8-9.8 3.6-5.6 7.1-10.8 7.1-15.3 0-2.1-.6-3.5-1.6-4.2-1.8-1.1-5-.3-7.1.8-3.4 1.7-15.3 16.9-22 28-3.5 9-12.2 24.5-12.6 25.2-.3.6-1.1.8-1.7.5-.6-.3-.8-1.1-.5-1.7.1-.2 9-16.1 12.5-24.9 0 0 0-.1.1-.1v-.1c.4-.7 10.5-19.1 11.9-26.2.5-2.5-.1-4.4-1.7-5.2-1.6-.8-4.2-.5-6.2 1.7-1.4 1.6-8.6 11.9-14.3 25.3-1.9 4.4-6.1 12.4-8.3 16.7-.5 1-1 1.8-1.2 2.4v.1c-1.2 2.4-1.8 3.7-2.4 5.1-.3.7-.6 1.5-1.1 2.4-.3.6-1 .9-1.7.6-.6-.3-.9-1-.6-1.7.4-.9.7-1.6 1-2.3.6-1.4 1.2-2.8 2.4-5.1.2-1.1 1.1-6.9 2-11.9.5-2.5 1.6-6.7 2.7-10.7 1.3-4.8 2.8-10.1 2.8-11.7 0-.9-.9-1.8-2.1-2-1.5-.3-2.8.4-3.6 2.1-2.4 4.8-7.1 15.8-10 23-3.5 8.9-8.1 23.6-8.5 24.9l-6.5 44.3-6.5 11.3z"/><path d="M238.8 111.5 3.3 409h154L312 180.2l-73.2-68.7z" class="st0"/><path d="M157.9 410.3H.7l1.6-2 236.3-298.6 75 70.4-.6.9-155.1 229.3zm-152-2.5h150.8l153.8-227.4-71.5-67.1L5.9 407.8z"/></svg>